HIERARCHY
ROOT Root
{
  OFFSET 0.0 0.0 0.0
  CHANNELS 6 Xposition Yposition Zposition Zrotation Yrotation Xrotation
  JOINT Hips
  {
    OFFSET 0.0 100.0 0.0
    CHANNELS 6 Xposition Yposition Zposition Zrotation Yrotation Xrotation
    JOINT Spine1
    {
      OFFSET 5.003913 -0.037094 -0.013727
      CHANNELS 3 Zrotation Yrotation Xrotation
      JOINT Spine2
      {
        OFFSET 7.125363 -1e-06 0.0
        CHANNELS 3 Zrotation Yrotation Xrotation
        JOINT Chest
        {
          OFFSET 7.594027 1e-06 0.0
          CHANNELS 3 Zrotation Yrotation Xrotation
          JOINT Neck1
          {
            OFFSET 26.313086 -0.460272 -0.181672
            CHANNELS 3 Zrotation Yrotation Xrotation
            JOINT Neck2
            {
              OFFSET 8.045911 0.0 0.0
              CHANNELS 3 Zrotation Yrotation Xrotation
              JOINT Head
              {
                OFFSET 6.432774 0.0 0.0
                CHANNELS 3 Zrotation Yrotation Xrotation
                JOINT HeadEnd
                {
                  OFFSET 16.169773 0.06451 0.00362
                  CHANNELS 3 Zrotation Yrotation Xrotation
                }
                JOINT Jaw
                {
                  OFFSET 0.108741 3.12938 0.002639
                  CHANNELS 3 Zrotation Yrotation Xrotation
                }
                JOINT LeftEye
                {
                  OFFSET 4.45173 8.166359 3.206392
                  CHANNELS 3 Zrotation Yrotation Xrotation
                }
                JOINT RightEye
                {
                  OFFSET 4.436895 8.135758 -3.222429
                  CHANNELS 3 Zrotation Yrotation Xrotation
                }
              }
            }
          }
          JOINT LeftShoulder
          {
            OFFSET 23.218927 5.195579 1.621656
            CHANNELS 3 Zrotation Yrotation Xrotation
            JOINT LeftArm
            {
              OFFSET 15.902118 2e-06 -2e-06
              CHANNELS 3 Zrotation Yrotation Xrotation
              JOINT LeftForeArm
              {
                OFFSET 28.739307 0.0 -1e-06
                CHANNELS 3 Zrotation Yrotation Xrotation
                JOINT LeftHand
                {
                  OFFSET 27.093981 -4e-06 0.0
                  CHANNELS 3 Zrotation Yrotation Xrotation
                  JOINT LeftHandThumb1
                  {
                    OFFSET 2.276781 3.380274 0.83384
                    CHANNELS 3 Zrotation Yrotation Xrotation
                    JOINT LeftHandThumb2
                    {
                      OFFSET 4.705309 -1e-06 -1e-06
                      CHANNELS 3 Zrotation Yrotation Xrotation
                      JOINT LeftHandThumb3
                      {
                        OFFSET 2.798515 0.0 3e-06
                        CHANNELS 3 Zrotation Yrotation Xrotation
                        JOINT LeftHandThumbEnd
                        {
                          OFFSET 3.180793 4e-06 -4e-06
                          CHANNELS 3 Zrotation Yrotation Xrotation
                        }
                      }
                    }
                  }
                  JOINT LeftHandIndex1
                  {
                    OFFSET 3.247786 2.352677 0.137192
                    CHANNELS 3 Zrotation Yrotation Xrotation
                    JOINT LeftHandIndex2
                    {
                      OFFSET 6.367095 1e-06 0.0
                      CHANNELS 3 Zrotation Yrotation Xrotation
                      JOINT LeftHandIndex3
                      {
                        OFFSET 3.662364 0.0 0.0
                        CHANNELS 3 Zrotation Yrotation Xrotation
                        JOINT LeftHandIndex4
                        {
                          OFFSET 2.329242 4e-06 -4e-06
                          CHANNELS 3 Zrotation Yrotation Xrotation
                          JOINT LeftHandIndexEnd
                          {
                            OFFSET 2.767823 1e-06 0.0
                            CHANNELS 3 Zrotation Yrotation Xrotation
                          }
                        }
                      }
                    }
                  }
                  JOINT LeftHandMiddle1
                  {
                    OFFSET 3.163612 0.945023 -0.406112
                    CHANNELS 3 Zrotation Yrotation Xrotation
                    JOINT LeftHandMiddle2
                    {
                      OFFSET 6.276789 3e-06 0.0
                      CHANNELS 3 Zrotation Yrotation Xrotation
                      JOINT LeftHandMiddle3
                      {
                        OFFSET 4.35652 -1e-06 4e-06
                        CHANNELS 3 Zrotation Yrotation Xrotation
                        JOINT LeftHandMiddle4
                        {
                          OFFSET 2.996877 0.0 8e-06
                          CHANNELS 3 Zrotation Yrotation Xrotation
                          JOINT LeftHandMiddleEnd
                          {
                            OFFSET 2.323256 3e-06 -4e-06
                            CHANNELS 3 Zrotation Yrotation Xrotation
                          }
                        }
                      }
                    }
                  }
                  JOINT LeftHandRing1
                  {
                    OFFSET 2.882606 -0.309162 0.107445
                    CHANNELS 3 Zrotation Yrotation Xrotation
                    JOINT LeftHandRing2
                    {
                      OFFSET 6.033198 0.0 4e-06
                      CHANNELS 3 Zrotation Yrotation Xrotation
                      JOINT LeftHandRing3
                      {
                        OFFSET 4.350578 3e-06 0.0
                        CHANNELS 3 Zrotation Yrotation Xrotation
                        JOINT LeftHandRing4
                        {
                          OFFSET 2.651321 2e-06 -7e-06
                          CHANNELS 3 Zrotation Yrotation Xrotation
                          JOINT LeftHandRingEnd
                          {
                            OFFSET 1.937663 1e-06 -4e-06
                            CHANNELS 3 Zrotation Yrotation Xrotation
                          }
                        }
                      }
                    }
                  }
                  JOINT LeftHandPinky1
                  {
                    OFFSET 2.865315 -1.525436 0.575687
                    CHANNELS 3 Zrotation Yrotation Xrotation
                    JOINT LeftHandPinky2
                    {
                      OFFSET 5.54936 1e-06 -8e-06
                      CHANNELS 3 Zrotation Yrotation Xrotation
                      JOINT LeftHandPinky3
                      {
                        OFFSET 3.070974 0.0 -4e-06
                        CHANNELS 3 Zrotation Yrotation Xrotation
                        JOINT LeftHandPinky4
                        {
                          OFFSET 1.549672 1e-06 0.0
                          CHANNELS 3 Zrotation Yrotation Xrotation
                          JOINT LeftHandPinkyEnd
                          {
                            OFFSET 1.952123 0.0 0.0
                            CHANNELS 3 Zrotation Yrotation Xrotation
                          }
                        }
                      }
                    }
                  }
                }
              }
            }
          }
          JOINT RightShoulder
          {
            OFFSET 23.161716 5.296122 -1.380114
            CHANNELS 3 Zrotation Yrotation Xrotation
            JOINT RightArm
            {
              OFFSET -16.027195 -2e-06 1.1e-05
              CHANNELS 3 Zrotation Yrotation Xrotation
              JOINT RightForeArm
              {
                OFFSET -28.736639 4e-06 2e-06
                CHANNELS 3 Zrotation Yrotation Xrotation
                JOINT RightHand
                {
                  OFFSET -27.133619 6e-06 0.0
                  CHANNELS 3 Zrotation Yrotation Xrotation
                  JOINT RightHandThumb1
                  {
                    OFFSET -2.274328 -3.351035 -0.83067
                    CHANNELS 3 Zrotation Yrotation Xrotation
                    JOINT RightHandThumb2
                    {
                      OFFSET -4.703594 -3e-06 2e-06
                      CHANNELS 3 Zrotation Yrotation Xrotation
                      JOINT RightHandThumb3
                      {
                        OFFSET -2.794935 -4e-06 -3e-06
                        CHANNELS 3 Zrotation Yrotation Xrotation
                        JOINT RightHandThumbEnd
                        {
                          OFFSET -3.183852 4e-06 1e-06
                          CHANNELS 3 Zrotation Yrotation Xrotation
                        }
                      }
                    }
                  }
                  JOINT RightHandIndex1
                  {
                    OFFSET -3.253496 -2.33755 -0.127667
                    CHANNELS 3 Zrotation Yrotation Xrotation
                    JOINT RightHandIndex2
                    {
                      OFFSET -6.344434 0.0 0.0
                      CHANNELS 3 Zrotation Yrotation Xrotation
                      JOINT RightHandIndex3
                      {
                        OFFSET -3.654871 0.0 -8e-06
                        CHANNELS 3 Zrotation Yrotation Xrotation
                        JOINT RightHandIndex4
                        {
                          OFFSET -2.327586 -1e-06 0.0
                          CHANNELS 3 Zrotation Yrotation Xrotation
                          JOINT RightHandIndexEnd
                          {
                            OFFSET -2.770001 3e-06 8e-06
                            CHANNELS 3 Zrotation Yrotation Xrotation
                          }
                        }
                      }
                    }
                  }
                  JOINT RightHandMiddle1
                  {
                    OFFSET -3.168223 -0.944764 0.411762
                    CHANNELS 3 Zrotation Yrotation Xrotation
                    JOINT RightHandMiddle2
                    {
                      OFFSET -6.266691 -1e-06 -4e-06
                      CHANNELS 3 Zrotation Yrotation Xrotation
                      JOINT RightHandMiddle3
                      {
                        OFFSET -4.348901 0.0 0.0
                        CHANNELS 3 Zrotation Yrotation Xrotation
                        JOINT RightHandMiddle4
                        {
                          OFFSET -3.00024 2e-06 -4e-06
                          CHANNELS 3 Zrotation Yrotation Xrotation
                          JOINT RightHandMiddleEnd
                          {
                            OFFSET -2.321477 -4e-06 -4e-06
                            CHANNELS 3 Zrotation Yrotation Xrotation
                          }
                        }
                      }
                    }
                  }
                  JOINT RightHandRing1
                  {
                    OFFSET -2.885654 0.293261 -0.119232
                    CHANNELS 3 Zrotation Yrotation Xrotation
                    JOINT RightHandRing2
                    {
                      OFFSET -6.032835 -1e-06 -4e-06
                      CHANNELS 3 Zrotation Yrotation Xrotation
                      JOINT RightHandRing3
                      {
                        OFFSET -4.33881 0.0 -4e-06
                        CHANNELS 3 Zrotation Yrotation Xrotation
                        JOINT RightHandRing4
                        {
                          OFFSET -2.654903 -4e-06 -4e-06
                          CHANNELS 3 Zrotation Yrotation Xrotation
                          JOINT RightHandRingEnd
                          {
                            OFFSET -1.935122 0.0 4e-06
                            CHANNELS 3 Zrotation Yrotation Xrotation
                          }
                        }
                      }
                    }
                  }
                  JOINT RightHandPinky1
                  {
                    OFFSET -2.866241 1.503904 -0.60527
                    CHANNELS 3 Zrotation Yrotation Xrotation
                    JOINT RightHandPinky2
                    {
                      OFFSET -5.553177 -2e-06 0.0
                      CHANNELS 3 Zrotation Yrotation Xrotation
                      JOINT RightHandPinky3
                      {
                        OFFSET -3.062664 -1e-06 -4e-06
                        CHANNELS 3 Zrotation Yrotation Xrotation
                        JOINT RightHandPinky4
                        {
                          OFFSET -1.546529 2e-06 4e-06
                          CHANNELS 3 Zrotation Yrotation Xrotation
                          JOINT RightHandPinkyEnd
                          {
                            OFFSET -1.952341 0.0 -4e-06
                            CHANNELS 3 Zrotation Yrotation Xrotation
                          }
                        }
                      }
                    }
                  }
                }
              }
            }
          }
        }
      }
    }
    JOINT LeftLeg
    {
      OFFSET -8.443107 2.567604 10.043214
      CHANNELS 3 Zrotation Yrotation Xrotation
      JOINT LeftShin
      {
        OFFSET 43.229198 1e-06 -1e-06
        CHANNELS 3 Zrotation Yrotation Xrotation
        JOINT LeftFoot
        {
          OFFSET 42.298611 1e-06 1e-06
          CHANNELS 3 Zrotation Yrotation Xrotation
          JOINT LeftToeBase
          {
            OFFSET 14.165858 1e-06 0.0
            CHANNELS 3 Zrotation Yrotation Xrotation
            JOINT LeftToeEnd
            {
              OFFSET 6.7141 -0.234461 0.0
              CHANNELS 3 Zrotation Yrotation Xrotation
            }
          }
        }
      }
    }
    JOINT RightLeg
    {
      OFFSET -8.303923 2.592729 -10.047278
      CHANNELS 3 Zrotation Yrotation Xrotation
      JOINT RightShin
      {
        OFFSET -43.369682 0.0 1e-06
        CHANNELS 3 Zrotation Yrotation Xrotation
        JOINT RightFoot
        {
          OFFSET -42.260784 4e-06 2e-06
          CHANNELS 3 Zrotation Yrotation Xrotation
          JOINT RightToeBase
          {
            OFFSET -14.222245 -2e-06 -1e-06
            CHANNELS 3 Zrotation Yrotation Xrotation
            JOINT RightToeEnd
            {
              OFFSET -6.660062 0.232574 -2e-06
              CHANNELS 3 Zrotation Yrotation Xrotation
            }
          }
        }
      }
    }
  }
}
MOTION
Frames: 4
Frame Time: 0.03333333333333333
0.0 0.0 0.0 0.0 -0.0 0.0 -4.612562 100.55368 4.132776 91.237617 -3.253189 89.753738 -2.359844 0.005495 -0.126462 -11.890562 -0.581122 -0.50422 14.133607 0.26423 -2.679004 19.415907 -1.926923 2.696524 -2.529157 -0.802552 -0.042988 -27.885899 -0.739679 -0.432299 6e-06 -0.0 -0.0 -0.01659 0.01854 0.018587 -0.00489 0.067172 0.027236 0.003579 -0.035323 0.014962 -115.704132 -76.305588 133.985168 52.608173 -52.832443 7.882969 23.553728 -0.347766 -0.218256 0.729852 2.199788 -3.166964 17.636625 -26.322729 52.411194 -19.466656 -14.395596 29.410381 0.0 -8.774822 0.0 16.00692 -18.082834 6.091676 -0.609778 -1.795655 -3.889327 -4.80709 -11.046811 -2.937851 2e-06 -20.976015 -3e-06 -5.019972 -25.03356 -4.031882 7e-06 -2e-06 -2e-06 -10.634535 -5.686974 -3.565587 10.573272 -17.922951 -3.113902 2e-06 -13.821209 -4e-06 -0.501778 -31.181505 -4.027018 -11.765533 -59.674919 7.413061 -13.982716 -7.1502 -2.875042 13.772727 -8.401491 -3.218242 0.347729 -34.211555 0.77165 -0.963028 -17.73337 2.621018 -1e-06 0.0 -1e-06 -17.346422 -20.095221 -4.201782 21.757559 -1.638372 3.866427 0.0 -6.338824 -2e-06 -1.697592 -22.591749 -6.194005 -0.0 -4e-06 -1e-06 51.576775 -77.69265 145.703796 44.495491 -58.335438 1.037049 25.186977 -0.541524 0.003723 -0.088498 8.205442 1.431626 22.182117 -20.375898 49.933327 -16.701813 -16.74353 28.47653 -2e-06 -12.690601 -2e-06 16.070345 -17.550156 2.601828 -0.105918 -1.513856 -4.275879 -5.039042 -5.612873 -2.953556 4e-06 -11.020525 -3e-06 -6.111301 -15.895332 -3.840469 -1e-06 -2e-06 -0.0 -10.283373 -5.68029 -4.341841 11.028293 -11.302407 -2.372632 -1.384271 -14.238584 -6.320123 -0.62544 -26.924194 -3.827602 -4.119314 -49.274761 -3.982117 -13.708527 -7.363478 -3.72094 18.141151 -14.052741 -3.242674 6e-06 -18.787271 -0.0 -0.429711 -8.456045 2.555502 2e-06 0.0 -1e-06 -15.923539 -20.094486 -5.473584 30.419218 -7.190823 1.735927 1e-06 -8.162925 -1e-06 -1.861901 -22.861471 -6.167946 0.0 -4e-06 1e-06 178.608536 -3.118487 7.865237 5.489928 -0.005597 -0.071295 -74.977844 -8.341697 -9.801609 -5.775464 1.594444 2.130086 -1.0 -0.0 0.0 0.066383 -6.451904 0.150814 5.752398 0.007603 0.114079 -77.590202 0.769087 -7.191267 -4.971574 0.759336 1.694461 -1.000003 -0.0 -0.0 
0.0 0.0 0.0 0.0 -0.0 0.0 -4.562692 100.563301 4.139687 91.241043 -3.287675 89.669876 -2.324915 0.005584 -0.146227 -11.860831 -0.570516 -0.440742 14.032979 0.284022 -2.71455 19.30612 -1.8347 2.688687 -2.510199 -0.799842 -0.007877 -27.842928 -0.717391 -0.414682 6e-06 -0.0 0.0 -0.015776 0.012309 0.020833 -0.004439 0.062886 0.03023 0.006803 -0.04355 0.015809 -114.879387 -76.482674 133.069824 52.715626 -53.148144 7.387567 23.604668 -0.382767 -0.247649 0.758707 2.233209 -3.157129 17.636633 -26.322733 52.411201 -19.466665 -14.395598 29.410395 -0.0 -8.774824 1e-06 15.995002 -18.030924 6.053003 -0.609777 -1.795653 -3.889329 -4.807091 -11.046813 -2.93785 2e-06 -20.976017 -1e-06 -5.019974 -25.033562 -4.031882 5e-06 -0.0 2e-06 -10.634537 -5.686971 -3.56559 10.573275 -17.922953 -3.113899 2e-06 -13.821211 -2e-06 -0.501779 -31.181505 -4.027016 -11.680447 -59.644962 7.409891 -13.982719 -7.1502 -2.875043 13.772732 -8.401493 -3.21824 0.34773 -34.211555 0.771654 -0.963028 -17.733372 2.621018 -0.0 -1e-06 0.0 -17.346426 -20.095221 -4.201783 21.757566 -1.638373 3.866427 1e-06 -6.338825 0.0 -1.697591 -22.591751 -6.194008 1e-06 -6e-06 -1e-06 51.870403 -77.885796 145.369888 44.440601 -58.440159 0.693705 24.925289 -0.540069 -0.021243 -0.043673 8.164917 1.36466 22.182117 -20.375898 49.933327 -16.701811 -16.74353 28.476528 -3e-06 -12.690601 -1e-06 16.106436 -17.555138 2.584078 -0.105919 -1.513856 -4.275881 -5.039042 -5.612872 -2.953557 3e-06 -11.020523 -2e-06 -6.111298 -15.895334 -3.840469 -0.0 0.0 1e-06 -10.283371 -5.680288 -4.341836 11.028293 -11.302406 -2.372632 -1.384269 -14.238582 -6.320124 -0.625439 -26.924194 -3.827601 -4.130045 -49.399044 -3.94538 -13.708527 -7.363476 -3.720941 18.141148 -14.052739 -3.242673 6e-06 -18.78727 -1e-06 -0.429711 -8.456045 2.555504 1e-06 1e-06 0.0 -15.923538 -20.094482 -5.473586 30.419218 -7.190826 1.735928 3e-06 -8.162926 -0.0 -1.861902 -22.861469 -6.167943 0.0 -1e-06 -2e-06 178.600739 -3.10396 7.791794 5.44489 0.002803 -0.020794 -74.937637 -8.394681 -9.897455 -5.776918 1.62324 2.140064 -1.0 0.0 -0.0 0.020919 -6.471803 0.209757 5.719678 -0.001835 0.110091 -77.520996 0.763393 -7.159481 -4.978103 0.731376 1.690475 -1.000003 0.0 -0.0 
0.0 0.0 0.0 0.0 -0.0 0.0 -4.535213 100.567688 4.082996 91.257095 -3.349566 89.568611 -2.305683 0.006646 -0.171854 -11.851535 -0.560393 -0.398174 13.982142 0.282954 -2.703308 19.150337 -1.750496 2.691556 -2.528901 -0.788467 0.021073 -27.785633 -0.675141 -0.39626 5e-06 -0.0 -0.0 -0.016423 0.009624 0.01558 -0.013619 0.057908 0.027413 0.00242 -0.04409 0.007537 -114.266724 -76.623611 132.365875 52.702114 -53.359581 7.015436 23.749332 -0.42786 -0.272936 0.71753 2.258283 -3.409379 17.636631 -26.322727 52.411179 -19.466654 -14.395594 29.410381 -0.0 -8.774821 1e-06 16.004915 -18.015816 6.008937 -0.609775 -1.795654 -3.889327 -4.807088 -11.046811 -2.93785 3e-06 -20.976011 -3e-06 -5.019973 -25.033556 -4.031876 5e-06 -0.0 -0.0 -10.634533 -5.686971 -3.565585 10.573271 -17.922951 -3.113897 2e-06 -13.821206 -2e-06 -0.501782 -31.181498 -4.027014 -11.639055 -59.588482 7.338127 -13.982713 -7.150198 -2.875041 13.772728 -8.401491 -3.218237 0.347733 -34.211552 0.771653 -0.963028 -17.73337 2.621018 -0.0 0.0 -1e-06 -17.346418 -20.095215 -4.201778 21.757557 -1.638372 3.866426 1e-06 -6.338823 -1e-06 -1.69759 -22.591749 -6.194005 -1e-06 -5e-06 -3e-06 52.047852 -78.054565 145.128342 44.347649 -58.515057 0.359988 24.715641 -0.542927 -0.048502 -0.043546 8.178649 1.243349 22.182116 -20.375891 49.933308 -16.701809 -16.743525 28.476526 -3e-06 -12.690598 -0.0 16.142313 -17.538469 2.591528 -0.105921 -1.513856 -4.275879 -5.03904 -5.612871 -2.953557 3e-06 -11.020521 -2e-06 -6.111298 -15.89533 -3.840467 0.0 -2e-06 -2e-06 -10.283368 -5.680289 -4.341837 11.028292 -11.302403 -2.372634 -1.38427 -14.23858 -6.320124 -0.625439 -26.924191 -3.827601 -4.155083 -49.462543 -3.912884 -13.708523 -7.363475 -3.720939 18.141146 -14.052736 -3.242673 6e-06 -18.78727 -2e-06 -0.42971 -8.456047 2.555502 1e-06 1e-06 0.0 -15.923536 -20.094482 -5.473583 30.419207 -7.190823 1.735927 1e-06 -8.162925 -1e-06 -1.861901 -22.861469 -6.16794 1e-06 -5e-06 -2e-06 178.538452 -3.084208 7.745451 5.42397 0.004547 0.010912 -74.910011 -8.446315 -9.96572 -5.737301 1.629191 2.144918 -0.999999 -0.0 0.0 -0.107544 -6.489251 0.249948 5.76931 -0.005692 0.101562 -77.519371 0.75756 -7.141832 -4.954091 0.717349 1.68897 -1.000002 0.0 0.0 
0.0 0.0 0.0 0.0 -0.0 0.0 -4.527437 100.572372 3.983552 91.267807 -3.416547 89.45784 -2.281688 0.0081 -0.19351 -11.845943 -0.548523 -0.383301 13.951258 0.270406 -2.663268 18.961838 -1.705889 2.684576 -2.548048 -0.769661 0.085398 -27.785627 -0.602071 -0.375061 6e-06 0.0 0.0 -0.019303 0.009102 0.012876 -0.020644 0.054534 0.02753 -0.002535 -0.041764 0.001617 -113.90078 -76.709755 131.947296 52.645844 -53.439331 6.771787 23.907331 -0.447373 -0.278307 0.654606 2.336338 -3.66039 17.636631 -26.322729 52.411186 -19.466665 -14.3956 29.410393 -1e-06 -8.774822 1e-06 15.993518 -17.994024 5.981338 -0.609776 -1.795654 -3.889327 -4.807089 -11.04681 -2.93785 6e-06 -20.976019 -2e-06 -5.019971 -25.033556 -4.03188 7e-06 -0.0 -0.0 -10.634536 -5.686971 -3.565588 10.573278 -17.922951 -3.113899 4e-06 -13.821206 -1e-06 -0.501778 -31.181505 -4.027012 -11.604097 -59.533028 7.266124 -13.982716 -7.150197 -2.875039 13.772733 -8.401491 -3.218243 0.347738 -34.211552 0.771649 -0.96303 -17.73337 2.621023 -0.0 1e-06 -0.0 -17.346416 -20.095215 -4.201782 21.757561 -1.638378 3.866427 1e-06 -6.338823 -0.0 -1.697591 -22.591742 -6.194003 -0.0 -5e-06 -2e-06 52.18763 -78.224937 144.910583 44.28532 -58.581482 0.078462 24.598526 -0.52184 -0.058994 -0.084481 8.183282 1.072665 22.182114 -20.375895 49.933319 -16.701818 -16.74353 28.476532 -4e-06 -12.6906 -2e-06 16.168982 -17.518137 2.608831 -0.10592 -1.513859 -4.275878 -5.039041 -5.612873 -2.953558 6e-06 -11.020525 -3e-06 -6.111296 -15.895336 -3.840469 0.0 0.0 -2e-06 -10.283368 -5.680288 -4.341839 11.028294 -11.302407 -2.372632 -1.384267 -14.238582 -6.320123 -0.625434 -26.924194 -3.8276 -4.187368 -49.451263 -3.880844 -13.708525 -7.363478 -3.720942 18.14115 -14.052742 -3.242674 1e-05 -18.787271 -3e-06 -0.429711 -8.456043 2.555503 1e-06 0.0 -1e-06 -15.923532 -20.094484 -5.473585 30.419214 -7.19083 1.735924 1e-06 -8.162927 -2e-06 -1.861897 -22.861475 -6.167947 -1e-06 -4e-06 1e-06 178.45993 -3.075036 7.676629 5.403894 0.004645 0.025811 -74.878693 -8.475611 -10.006722 -5.710078 1.623113 2.145663 -0.999998 0.0 0.0 -0.279513 -6.492001 0.289219 5.865594 -0.005437 0.089583 -77.532524 0.788037 -7.141792 -4.95418 0.70652 1.68602 -1.000003 -0.0 0.0 
